<svg xmlns="http://www.w3.org/2000/svg" viewBox="0 0 33.23 30"><title>blog-calendar</title><g id="Calque_2" data-name="Calque 2"><g id="Icons"><path d="M9.24,6.05V1.56a1.57,1.57,0,0,0-3.13,0V6.05a1.57,1.57,0,0,0,3.13,0m17.88,0V1.56a1.57,1.57,0,0,0-3.13,0V6.05a1.57,1.57,0,0,0,3.13,0m6.11,22.63V8.52a1.3,1.3,0,0,0-1.3-1.3H27.87l-.06.09a2.59,2.59,0,0,1-4.51,0l-.06-.09H10l-.06.09a2.59,2.59,0,0,1-4.51,0l-.06-.09H1.3A1.3,1.3,0,0,0,0,8.52V28.29a1.31,1.31,0,1,0,2.61,0V9.83h28V27.38H6.26V30H31.93a1.31,1.31,0,0,0,1.3-1.31M25.68,24h-3V21.24h3Zm0-3.69h0v0Zm0-3.84h-3V13.27h3v3.15M21.74,24H19.09v-2.7h2.65Zm0-7.53H19.09V13.27h2.65v3.15m-3.62-3.15h0v3.15H15.46V13.27Zm-3.63,7H11.84V17.4h2.65v2.86m0-3.84H11.84V13.27h2.65v3.15m1,4.82h2.65v2.7H15.46Zm-4.59-1H7.77V17.4h3.1v2.86m0-3.84H7.77V13.27h3.1v3.15m15.43.49h.79V12.6a.69.69,0,0,0-.71-.67H7.07a.69.69,0,0,0-.71.67V23.93H7.78v.45a.63.63,0,0,1-.14.37.62.62,0,0,0,.13-.37v-.45H6.36v.45a.63.63,0,0,0,.21.47.63.63,0,0,1-.21-.47v.91h20a.7.7,0,0,0,.71-.67V16.91Z"/></g></g></svg>