<svg xmlns="http://www.w3.org/2000/svg" viewBox="0 0 16.9 30.98"><title>ArrowUpDown</title><g id="Calque_2" data-name="Calque 2"><g id="Calque_1-2" data-name="Calque 1"><g id="Calque_2-2" data-name="Calque 2"><g id="Icons"><path d="M9.6.39l7.3,7.1V11L8.6,3,2.3,9a1.51,1.51,0,0,1-1.9.1,1.24,1.24,0,0,1-.1-1.7l.1-.1,7.3-7a1.51,1.51,0,0,1,1.9.1"/></g></g><g id="Calque_2-3" data-name="Calque 2"><g id="Icons-2" data-name="Icons"><path d="M7.3,30.59,0,23.49V20l8.3,8,6.3-6a1.51,1.51,0,0,1,1.9-.1,1.24,1.24,0,0,1,.1,1.7l-.1.1-7.3,7a1.5,1.5,0,0,1-1.9-.1"/></g></g></g></g></svg>