<svg xmlns="http://www.w3.org/2000/svg" viewBox="0 0 33 33"><g><path d="M7.94,19l.57,1.3,1.56-.43-.63-1.43Z"/><path d="M21.53,9.83l-1.28-.68-3.77,6.17a1.62,1.62,0,0,0-.51.21,1.57,1.57,0,0,0-.69.77l-1.57.58h0L13.3,17h0L5.11,20l.43,1.09,5.71-1.58h.09l2.73-.75h0L16,18.24a1.8,1.8,0,0,0,.38.16,1.56,1.56,0,0,0,1.29-.4,1.5,1.5,0,0,0,.66-1.23,1.37,1.37,0,0,0-.09-.4Z"/><path d="M16.5,0A16.45,16.45,0,0,0,4.17,27.4h0l.5.59a1.4,1.4,0,0,0,2.22-1.72A1.5,1.5,0,0,0,6.6,26l-.35-.35A13.75,13.75,0,1,1,16.5,30.28a16.45,16.45,0,0,1-5-.94L10,31.72A18.13,18.13,0,0,0,16.5,33a16.5,16.5,0,0,0,0-33"/></g></svg>