<svg xmlns="http://www.w3.org/2000/svg" viewBox="0 0 30.46 31.82"><title>Mailing_message-black</title><g id="Calque_2" data-name="Calque 2"><g id="Icons"><g id="Mailing_message-black"><path d="M25.5,29.33h-23V12.54a1.72,1.72,0,0,1,.68-1.37l11-8.35a1.8,1.8,0,0,1,2.08,0l11,8.35A1.73,1.73,0,0,1,28,12.54v18a1.24,1.24,0,1,0,2.48,0v-18a4.24,4.24,0,0,0-1.67-3.36L17.78.84a4.28,4.28,0,0,0-5.09,0l-11,8.35A4.21,4.21,0,0,0,0,12.54V31.82H25.5Z"/><path d="M6.14,26.16a1.23,1.23,0,0,0,1,.53,1.22,1.22,0,0,0,.71-.22l17-11.89a1.25,1.25,0,0,0-1.43-2l-8.14,5.69L6.8,12.34a1.24,1.24,0,0,0-1.41,2.05l7.76,5.36-6.7,4.68a1.25,1.25,0,0,0-.31,1.73"/></g></g></g></svg>