<svg xmlns="http://www.w3.org/2000/svg" viewBox="0 0 31.1 24.9"><title>Menu</title><g id="Calque_2" data-name="Calque 2"><g id="Calque_1-2" data-name="Calque 1"><circle cx="1.9" cy="2" r="1.9"/><path d="M29.2,3.8H6.9A1.9,1.9,0,0,1,5,1.9H5A1.9,1.9,0,0,1,6.9,0H29.2a1.9,1.9,0,0,1,1.9,1.9h0A1.9,1.9,0,0,1,29.2,3.8Z"/><circle cx="1.9" cy="12.5" r="1.9"/><path d="M29.2,14.3H6.9A1.9,1.9,0,0,1,5,12.4H5a1.9,1.9,0,0,1,1.9-1.9H29.2a1.9,1.9,0,0,1,1.9,1.9h0A1.9,1.9,0,0,1,29.2,14.3Z"/><circle cx="1.9" cy="23" r="1.9"/><path d="M29.2,24.8H6.9A1.9,1.9,0,0,1,5,22.9H5A1.9,1.9,0,0,1,6.9,21H29.2a1.9,1.9,0,0,1,1.9,1.9h0A1.9,1.9,0,0,1,29.2,24.8Z"/></g></g></svg>