<svg xmlns="http://www.w3.org/2000/svg" viewBox="0 0 26.05 27.2"><defs><style>.cls-1{fill:#505050;}.cls-2{fill:none;stroke:#505050;stroke-miterlimit:10;stroke-width:1.5px;}.cls-3{fill:#ea5441;}</style></defs><title>Pdf</title><g id="Calque_2" data-name="Calque 2"><g id="Calque_1-2" data-name="Calque 1"><g id="Calque_3" data-name="Calque 3"><path class="cls-1" d="M25.3,9.15v1H20.5a3,3,0,0,1-3-3V.75h1Z"/><path class="cls-2" d="M4.8,6.15V3.75a3,3,0,0,1,3-3H18.5l6.8,8.4v14.3a3.08,3.08,0,0,1-3,3H7.8a3.08,3.08,0,0,1-3-3v-.8"/><path class="cls-3" d="M15,7.65v13.5H1.5V7.65H15m1.5-1.5H0v16.5H16.5V6.15Z"/></g><path class="cls-3" d="M14.4,17.55a1,1,0,0,1-.9,1.1,2.08,2.08,0,0,1-1.1-.1,8.68,8.68,0,0,1-2.2-1.7,1,1,0,0,0-1.1-.4c-1,.3-2,.5-3,.8-.2,0-.3.2-.4.3a7.71,7.71,0,0,1-1.9,2.1,3.13,3.13,0,0,1-1,.5c-.6.2-.8-.4-.7-.8a2,2,0,0,1,.8-1.2,7.55,7.55,0,0,1,2.3-1.3,1,1,0,0,0,.5-.4,16.82,16.82,0,0,0,1.6-3.3.64.64,0,0,0,0-.6,6.63,6.63,0,0,1-.5-2.8,1.85,1.85,0,0,1,.2-.7,1,1,0,0,1,1.6-.3.6.6,0,0,1,.1.4,18,18,0,0,1-.6,3.2,1.15,1.15,0,0,0,.1,1c.5.7,1.1,1.4,1.6,2.1.1.2.3.2.5.2a8.42,8.42,0,0,1,2.7.4,1.8,1.8,0,0,1,.9.6A2.06,2.06,0,0,1,14.4,17.55Zm-6.6-3.8c-.5.9-.9,1.8-1.3,2.7l2.9-.6C8.8,15.15,8.3,14.45,7.8,13.75Zm2.9,2.6h0a5.85,5.85,0,0,0,2.1,1.7c.1,0,.2.1.3.1s.6-.1.7-.3a.82.82,0,0,0-.1-.7,1.79,1.79,0,0,0-.7-.5c-.5-.1-1.1-.2-1.5-.3Zm-3.1-4.5h0a.1.1,0,0,0,.1-.1c.1-.8.3-1.6.4-2.5a.35.35,0,0,0-.1-.2c-.2-.2-.6,0-.6.3a5.65,5.65,0,0,0,0,1.3C7.4,11.15,7.6,11.55,7.6,11.85Zm-2.8,5.9a1.69,1.69,0,0,1-.5.2A11.32,11.32,0,0,0,3,19a.91.91,0,0,0-.3.7A3.78,3.78,0,0,0,4.8,17.75Z"/></g></g></svg>