<svg xmlns="http://www.w3.org/2000/svg" viewBox="0 0 32.72 31.82"><title>Call_center-phone-black</title><g id="Calque_2" data-name="Calque 2"><g id="Icons"><path id="Call_center-phone-black" d="M5.61,3.72a38.78,38.78,0,0,0-2.9,3.65q0,.3.15.93a25.89,25.89,0,0,0,7.55,14.08c4.77,4.77,10.32,6.75,14,6.75h.06a41.12,41.12,0,0,0,5-3.6,55.54,55.54,0,0,0-5.3-3.37c-.33.29-.79.74-1.07,1a6.16,6.16,0,0,1-1.5,1.29c-1.23.61-5.14.13-9-3.74-4-4-5.3-8.57-5.3-9.49s.78-1.66,2.29-2.92l.62-.53C9.57,6.56,8,3.85,6.86,2.08A1.35,1.35,0,0,1,9.12.62c.68,1.06,1.65,2.67,2.47,4.1,1.63,2.87,1.59,3.09,1.51,3.57-.12.69-.68,1.16-1.79,2.09-.35.3-1,.8-1.27,1.12a17.57,17.57,0,0,0,4.46,7.32c2.78,2.78,5.23,3.21,6,3.19.19-.17.52-.5.75-.73,1.29-1.29,2-2,2.86-2,.33,0,.87,0,4.6,2.4,2.44,1.57,4,2.61,4,3.75A2.11,2.11,0,0,1,32,26.91a38.05,38.05,0,0,1-3.6,2.89c-2.75,2-3.26,2-3.64,2h-.3c-4.47,0-10.57-2.19-15.91-7.54A28.47,28.47,0,0,1,.23,8.86,9,9,0,0,1,0,7.12c0-.3.75-2.3,4.4-5.82"/></g></g></svg>