<svg xmlns="http://www.w3.org/2000/svg" viewBox="0 0 35.16 31.82"><title>Icon_Search</title><g id="Calque_2" data-name="Calque 2"><g id="Icons"><path d="M22.35,0a12.82,12.82,0,0,0-3.76,25.07,1.26,1.26,0,0,0,.74-2.41A10.08,10.08,0,0,1,16,21a10.31,10.31,0,1,1,6.32,2.16c0,1,0,1.58,0,2.51A12.81,12.81,0,0,0,22.35,0"/><path d="M23.94,5.88a1.16,1.16,0,0,0-1.16-1.16,8.68,8.68,0,0,0-8.67,8.67,1.16,1.16,0,0,0,2.32,0A6.36,6.36,0,0,1,22.78,7a1.16,1.16,0,0,0,1.16-1.16"/><path d="M9.24,20.7.76,28a2.16,2.16,0,0,0-.24,3.05,2.12,2.12,0,0,0,1.65.77,2.15,2.15,0,0,0,1.4-.52L12.05,24a9.63,9.63,0,0,1-2.81-3.3"/></g></g></svg>