<svg xmlns="http://www.w3.org/2000/svg" viewBox="0 0 19.86 31.82"><title>blog-people</title><g id="Calque_2" data-name="Calque 2"><g id="Icons"><path d="M9.94,14.32a4.29,4.29,0,0,1-4-2.72.72.72,0,0,1,.41-.93.72.72,0,0,1,.92.4,2.88,2.88,0,0,0,5.35,0,.71.71,0,0,1,1.32.52,4.27,4.27,0,0,1-4,2.73"/><path d="M18,31.82H1.9A1.9,1.9,0,0,1,0,29.92V21.44a1.9,1.9,0,0,1,1.57-1.87l5.36-.86.32,0a1.91,1.91,0,0,1,1.55.79l.07.12,1,2,.88-1.88a.83.83,0,0,1,.07-.13,1.92,1.92,0,0,1,1.82-.81l5.54.69a1.91,1.91,0,0,1,1.65,1.88v8.55a1.9,1.9,0,0,1-1.9,1.9M7.25,20.54h0l-5.35.86a0,0,0,0,0,0,0v8.48a0,0,0,0,0,0,0H18a0,0,0,0,0,.05,0V21.37a.07.07,0,0,0,0-.05l-5.54-.68h0l-.79,1.69,1.64,4.84a.9.9,0,0,1-.12.84.92.92,0,0,1-.75.39H7.5A.92.92,0,0,1,6.75,28a.94.94,0,0,1-.13-.83L8.2,22.37l-.93-1.83h0m1.53,6h2.3L9.91,23.1Z"/><path d="M9.85,18.07a.93.93,0,0,1,0-1.86,7.17,7.17,0,1,0-3.06-.68c-.2.44-.58,1.22-.79,1.68a9,9,0,1,1,3.85.86"/></g></g></svg>