<?xml version="1.0" encoding="utf-8"?>
<!-- Generator: Adobe Illustrator 22.1.0, SVG Export Plug-In . SVG Version: 6.00 Build 0)  -->
<svg version="1.1" id="footerLinkedin" xmlns="http://www.w3.org/2000/svg" xmlns:xlink="http://www.w3.org/1999/xlink" x="0px" y="0px" viewBox="0 0 155.5 143.9" style="enable-background:new 0 0 155.5 143.9;" xml:space="preserve">
<title>Logo_LinkedIn</title>
<g id="linkedin">
	<rect class="linkedin" width="155.5" height="143.9"/>
	<path class="socialFill" d="M34.5,58.2h18.8v60.5H34.5V58.2z M43.9,28.1c6,0,10.9,4.8,10.9,10.9S50,49.9,44,49.9s-10.9-4.8-10.9-10.9
		c0,0,0,0,0,0C33.1,33,37.9,28.2,43.9,28.1"/>
	<path class="st1" d="M65.1,58.2h18v8.3h0.3c2.5-4.8,8.6-9.8,17.8-9.8c19,0,22.5,12.5,22.5,28.8v33.2h-18.8V89.3c0-7-0.1-16-9.8-16
		c-9.8,0-11.3,7.6-11.3,15.5v29.9H65.1V58.2z"/>
</g>
</svg>
