<svg version="1.1" id="footerGoogle" xmlns="http://www.w3.org/2000/svg" xmlns:xlink="http://www.w3.org/1999/xlink" x="0px" y="0px"
	 viewBox="0 0 416.9 416.9" style="enable-background:new 0 0 416.9 416.9;" xml:space="preserve">
<title>GooglePlus</title>
<g id="google">
	<rect class="google" width="416.9" height="416.9"/>
	<path class="socialFill" d="M51.3,207.4c-2-51.7,43.3-99.5,95.1-100.1c26.4-2.3,52,8,72,24.7c-8.2,9-16.5,17.9-25.4,26.2
		c-17.6-10.7-38.7-18.8-59.3-11.6c-33.1,9.4-53.2,48.5-40.9,80.9c10.1,33.8,51.3,52.4,83.6,38.2c16.7-5.9,27.7-21.4,32.6-38
		c-19.1-0.4-38.3-0.1-57.4-0.7c0-11.4-0.1-22.7,0-34.1c31.9,0,63.9-0.1,95.9,0.1c2,27.9-2.2,57.8-20.3,80.2
		c-24.8,32-70.8,41.3-108.1,28.8C79.2,289.1,50.4,249.2,51.3,207.4z"/>
	<path class="socialFill" d="M309.4,164.3h28.5c0,9.5,0.1,19.1,0.2,28.6c9.5,0.1,19.1,0.1,28.6,0.2v28.5l-28.6,0.1
		c-0.1,9.5-0.1,19.1-0.2,28.7c-9.5-0.1-19,0-28.5,0c-0.1-9.6-0.1-19.1-0.2-28.6c-9.5-0.1-19.1-0.1-28.6-0.2v-28.5
		c9.5,0,19-0.1,28.6-0.2C309.3,183.4,309.3,173.8,309.4,164.3z"/>
</g>
</svg>
