<?xml version="1.0" encoding="utf-8"?>
<!-- Generator: Adobe Illustrator 22.1.0, SVG Export Plug-In . SVG Version: 6.00 Build 0)  -->
<svg version="1.1" id="Calque_1" xmlns="http://www.w3.org/2000/svg" xmlns:xlink="http://www.w3.org/1999/xlink" x="0px" y="0px"
	 viewBox="0 0 576.5 576.5" style="enable-background:new 0 0 576.5 576.5;" xml:space="preserve">
<style type="text/css">
	.st0{fill:#50989A;}
	.st1{fill:#FFFFFF;}
</style>
<title>Logo_Slideshare</title>
<g id="Calque_2_1_">
	<g id="Capa_1">
		<rect class="st0" width="576.5" height="576.5"/>
		<path class="st1" d="M246.3,225.7c4.9,0,9.7,1,14.1,2.9c8.6,3.8,15.5,10.7,19.3,19.4c3.9,9,3.9,19.2,0,28.2
			c-3.8,8.6-10.7,15.5-19.3,19.3c-9,3.9-19.2,3.9-28.2,0c-8.6-3.8-15.5-10.7-19.3-19.3c-3.9-9-3.9-19.2,0-28.2
			c3.8-8.6,10.7-15.5,19.3-19.3C236.7,226.7,241.5,225.7,246.3,225.7z M332.5,225.7c4.9,0,9.7,1,14.1,2.9
			c8.6,3.8,15.5,10.7,19.3,19.3c3.9,9,3.9,19.2,0,28.2c-3.8,8.6-10.7,15.5-19.3,19.3c-9,3.9-19.2,3.9-28.2,0
			c-8.6-3.8-15.5-10.7-19.3-19.3c-3.9-9-3.9-19.2,0-28.2c3.8-8.6,10.7-15.5,19.3-19.3C322.8,226.7,327.6,225.7,332.5,225.7
			L332.5,225.7z M342.9,341.6c-4.3,4.1-9.1,7.7-14.2,10.7c-5.1,2.9-11.2,4.4-18.2,4.4c-5.6,0.1-11.2-0.6-16.7-2
			c-1.3-0.2-2.6-0.6-3.9-1c-1.2-0.5-2.4-0.8-3.6-1.1c-1.2-0.3-2.4-0.7-3.6-1.1v64.8c0.1,4-1,7.9-3.1,11.3
			c-4.2,6.3-10.4,11-17.7,13.2c-3.2,1-6.6,1.6-10,1.6c-3.8-0.1-7.6-0.7-11.3-1.6c-4.8-1.2-9.4-3.2-13.6-5.8
			c-5-3.1-9.5-6.9-13.4-11.3c-4.7-5.4-8.5-11.6-11.1-18.3c-2.3-6.5-3.8-13.2-4.6-20c-0.7-7.3-0.8-14.7-0.3-22.1
			c0.6-9.4,2.5-18.7,5.6-27.7c-5-2.2-9.9-4.5-14.7-7c-4.8-2.5-9.1-4.9-12.8-7c-4.4-2.4-8.5-4.9-12.4-7.5c-1.4-0.8-2.8-1.7-4.1-2.6
			c-1.2-0.9-2.3-1.7-3.4-2.6c-0.9-0.7-1.6-1.3-2.3-1.8c-0.7-0.5-1.3-1.1-2-1.8c-5.5-4.6-9.2-8.6-11.1-11.9c-1.2-2-2.3-4-3.3-6.1
			c-0.5-1-0.9-2-1.1-3.1c-0.3-1.2,0.1-2.4,1.1-3.1c2-1.5,5.1-1.5,9.5,0c1.3,0.5,2.5,1.2,3.6,2c1.5,1.1,3.5,2.5,5.9,4.1
			c2.4,1.6,5.8,3.7,10.2,6.1c1.5,0.7,3.1,1.4,4.8,2.3c1.6,0.9,3.3,1.9,5.1,2.9c1.1,0.4,2.1,0.9,2.9,1.3c0.9,0.4,1.9,0.9,2.9,1.3
			c3.6,1.8,7.3,3.3,11.1,4.6c3.3,1.1,7,2.2,11.1,3.4c4.1,1.2,8.2,2.1,12.5,2.8h58.3c1.4,0.1,2.6,0.7,3.6,1.6
			c1.3,1.1,2.8,2.5,4.4,4.1c1.6,1.6,3.3,3.4,5.1,5.4c1.8,2,3.7,3.7,5.9,5.2l3.3,2l3.6,1.6c9,3.1,16.3,3.7,22.1,1.8
			c5.8-1.9,10-4.6,12.6-8.4c2.3-3.4,4.9-6.7,7.7-9.7c2.1-2.1,4.7-2.5,8-1.1c1.7,0.6,2.8,2.3,2.8,4.1c0,2.5-0.4,4.9-1.3,7.2
			c-1.1,2.9-2.4,5.7-4.1,8.4C346.9,336.8,345,339.3,342.9,341.6L342.9,341.6z M439.5,280.1c1,0.7,1.5,1.9,1.1,3.1
			c-0.3,1.1-0.7,2.1-1.1,3.1c-0.2,1.1-0.6,2.2-1.1,3.3c-1.1,2.3-2.5,4.4-4.1,6.4c-2.4,3-5.1,5.8-8,8.3c-3.9,3.4-8.3,6.4-12.9,8.8
			c-4.1,2.6-8.4,5.1-12.8,7.5c-3.7,2.2-7.9,4.5-12.6,7c-4.7,2.5-9.6,4.9-14.6,7c2.9,9,4.7,18.3,5.4,27.7c0.6,7.4,0.5,14.8-0.2,22.1
			c-0.8,6.8-2.3,13.5-4.6,20c-3.1,7.6-6.8,13.8-11.1,18.5c-4,4.4-8.5,8.2-13.4,11.3c-4.2,2.7-8.8,4.6-13.6,5.7
			c-3.7,0.9-7.5,1.4-11.3,1.5c-3.4-0.1-6.8-0.6-10-1.6c-3.6-1.1-7-2.8-10-5.1c-3-2.3-5.6-5-7.7-8.2c-2.1-3.4-3.2-7.3-3.1-11.3v-60.6
			c2.4,0.4,5,0.9,7.8,1.3c2.9,0.4,5.9,0.7,8.8,0.7c7,0,13-1.5,18.2-4.4c5.2-3,9.9-6.5,14.2-10.6c2.1-2.3,3.9-4.9,5.6-7.5
			c1.6-2.6,3-5.4,4.1-8.3c0.9-2.3,1.4-4.7,1.3-7.2c0.1-1.8-1.1-3.5-2.8-4.1c-3.3-1.3-6-0.9-8,1.1c-2.8,3-5.4,6.2-7.7,9.7
			c-2.6,3.7-6.8,6.5-12.6,8.3c-5.8,1.9-13.2,1.3-22.1-1.8c-1.3-0.4-2.5-1-3.6-1.6l-3.3-2V321c0-1.7,0.2-3.3,0.7-4.9
			c0.1-0.7,0.4-1.3,0.7-2c1-1,2.2-1.8,3.6-2.3c0.9-0.4,1.9-0.6,2.9-0.7h58.3c4.4-0.9,8.8-2,13.1-3.4c4.4-1.4,8.4-2.8,12.1-4.1
			c4.1-1.5,8.2-3.2,12.1-4.9c0.4-0.2,0.9-0.4,1.5-0.7s1.1-0.4,1.8-0.7c1.5-1,3.1-1.8,4.7-2.6c1.4-0.7,2.8-1.4,4.1-2.3
			c4.4-2.4,7.7-4.4,10.1-5.9c2.4-1.5,4.5-2.8,6.2-3.9c0.7-0.6,1.5-1,2.3-1.5c0.7-0.3,1.3-0.7,2-1.1
			C434.4,278.5,437.6,278.5,439.5,280.1L439.5,280.1z M166.1,293.2c-4.4-2.4-7.8-4.4-10.2-6.1c-2.4-1.6-4.4-3-5.9-4.1V142.2
			c-0.1-2.2,0.7-4.3,2.3-5.9c1.5-1.5,3.5-2.3,5.6-2.3h259.7c4.3-0.2,8,3.1,8.2,7.5c0,0.2,0,0.5,0,0.7v140.5
			c-1.7,1.1-3.8,2.4-6.2,3.9c-2.4,1.5-5.8,3.5-10.2,5.9V150.4H166.1V293.2z M155.7,308.9c-1.8-0.7-3.3-2-4.3-3.6
			c0.6,0.6,1.3,1.2,2,1.8C154,307.6,154.7,308.2,155.7,308.9L155.7,308.9z M216.6,311.8c-4.2-0.7-8.4-1.6-12.5-2.8
			c-4.1-1.2-7.9-2.3-11.1-3.4c-3.8-1.3-7.5-2.8-11.1-4.6l215.5-2.3c-3.9,1.7-8,3.4-12.1,4.9c-3.7,1.3-7.8,2.7-12.1,4.1
			c-4.3,1.4-8.7,2.6-13.1,3.5h-58.3c-1,0.1-2,0.3-2.9,0.7c-1.4,0.5-2.6,1.3-3.6,2.3c-0.3,0.6-0.5,1.3-0.7,2
			c-0.4,1.6-0.6,3.3-0.7,4.9v7.2c-2.2-1.5-4.1-3.3-5.9-5.2c-1.7-2-3.4-3.8-5.1-5.4c-1.6-1.6-3.1-3-4.4-4.1c-1-0.9-2.2-1.5-3.6-1.6
			L216.6,311.8z"/>
	</g>
</g>
</svg>
