<svg xmlns="http://www.w3.org/2000/svg" viewBox="0 0 388 388"><defs><style>.cls-1{fill:#ca2027;}.cls-2{fill:#fff;}</style></defs><title>Logo_Pinterest</title><g id="Calque_2" data-name="Calque 2"><g id="Layer_1" data-name="Layer 1"><rect class="cls-1" width="388" height="388"/><path class="cls-2" d="M194,92a102,102,0,0,0-40.94,195.42c-.29-7.12-.06-15.67,1.77-23.42,2-8.28,13.13-55.58,13.13-55.58a39.16,39.16,0,0,1-3.26-16.14c0-15.11,8.76-26.4,19.67-26.4,9.28,0,13.76,7,13.76,15.31,0,9.33-5.95,23.28-9,36.2-2.55,10.82,5.43,19.65,16.1,19.65,19.33,0,32.34-24.83,32.34-54.24,0-22.35-15.05-39.09-42.44-39.09-30.94,0-50.22,23.08-50.22,48.85,0,8.89,2.62,15.16,6.73,20,1.88,2.23,2.15,3.13,1.46,5.68-.49,1.88-1.61,6.4-2.08,8.19a3.51,3.51,0,0,1-5.1,2.55C131.66,223.18,125,207.57,125,190c0-29,24.44-63.71,72.9-63.71,38.94,0,64.57,28.18,64.57,58.43,0,40-22.24,69.9-55,69.9-11,0-21.37-5.95-24.92-12.71,0,0-5.92,23.5-7.18,28-2.16,7.86-6.39,15.72-10.27,21.85A102,102,0,1,0,194,92Z"/></g></g></svg>