<svg xmlns="http://www.w3.org/2000/svg" viewBox="0 0 600 600"><defs><style>.cls-1{fill:#ec8418;}.cls-2{fill:#fff;}</style></defs><title>Logo_Viadeo</title><g id="Calque_2" data-name="Calque 2"><g id="Calque_1-2" data-name="Calque 1"><rect class="cls-1" width="600" height="600"/><path class="cls-2" d="M270.74,474.17c40.14-1.49,71.55-18.65,91.88-53.5,19.89-34.11,21.32-70.24,8-106.7l34.63-14c1.75,5.32,4,11,5.49,16.83,6.93,27,7.4,54.17.61,81.34-6.93,27.74-21.18,51.3-41.32,71.28-31.93,31.7-71.07,43-115.17,39.88-21.7-1.53-42.19-7.12-60.91-18.27-29.11-17.34-50.24-42-62.67-73.31-16.81-42.37-16.2-85.12,3.75-126.2,20.82-42.86,54.18-71.75,101.76-81.73,26.33-5.52,52.62-4,78.43,4a21.13,21.13,0,0,1,2.31.82,4.48,4.48,0,0,1,.93.58c-3.67,11.68-7.27,23.16-10.86,34.61-7.05-1.72-14.71-4.28-22.57-5.39-34.45-4.87-64.84,4-90.39,28-18.17,17.12-30.79,37.59-35.15,62.32-8,45.27,3.66,84.38,38.71,115.18,13.45,11.82,29.55,18.89,47.14,22.31a11.48,11.48,0,0,0,6.28-.89c19.72-8.47,35.14-22.2,47.44-39.58,16.32-23.06,25.84-49.05,32.51-76.24A404.74,404.74,0,0,0,343,273.08c.65-18.66.13-37.35.69-56,17.68,46.15,23.41,93.16,9.37,141.35C339.05,406.39,310.2,444,270.74,474.17Z"/><path class="cls-2" d="M460,99.75a133.06,133.06,0,0,1,16.94,40.11c6.21,25.21,5.9,50.33-2.15,75-5.64,17.32-15.2,32.31-29.73,43.66-18.72,14.62-42,15.76-62.25,3.07-5.39-3.38-10.31-7.52-16.1-11.8,1.83-1.31,2.92-2.21,4.12-2.94,20.82-12.57,41-26,58.68-42.88,9.1-8.69,17.49-18,22.38-29.93a18.93,18.93,0,0,0,1.46-6.94c-4.49,6.28-8.77,12.73-13.5,18.82-19,24.49-43.61,40.8-73.23,49.65-9.75,2.91-9.89,2.91-13.55-6.53-6.59-17-7.7-33.9,1.29-50.56,7.7-14.27,20.24-22.54,34.87-28.1,6.49-2.47,13.13-4.53,19.77-6.55,20.88-6.36,36.25-19.46,47.15-38.13,1-1.76,2-3.54,3.07-5.3C459.32,100.23,459.58,100.1,460,99.75Z"/><path class="cls-2" d="M286.94,91.75c35.48,30.93,50,71.87,55.2,117.2A876.73,876.73,0,0,0,286.94,91.75Z"/></g></g></svg>