<svg xmlns="http://www.w3.org/2000/svg" viewBox="0 0 540.54 540.54"><defs><style>.cls-1{fill:#0f484d;}.cls-2{fill:#fff;}</style></defs><title>Logo_Xing</title><g id="Calque_2" data-name="Calque 2"><g id="Capa_1" data-name="Capa 1"><rect class="cls-1" width="540.54" height="540.54"/><path class="cls-2" d="M175.66,343.44q8.37,0,14.33-10.14,54.44-96.53,56.64-100.5l-36.14-63q-5.73-9.92-14.54-9.92H143.27c-3.39,0-5.73,1.1-7.05,3.31q-2.43,3.3.21,8.15l35.49,61.49c.14.16.14.22,0,.22l-55.76,98.74a7.68,7.68,0,0,0,0,7.93,7.34,7.34,0,0,0,6.83,3.75Z"/><path class="cls-2" d="M417.44,88H364.33q-8.59,0-14.11,9.92-113.07,200.56-117,207.61l74.71,137.1q5.3,9.92,14.54,9.91h52.68q4.85,0,7.05-3.3,2.2-3.76-.22-8.16L307.9,305.53v-.21L424.27,99.46q2.43-4.62,0-8.15Q422.29,88,417.44,88Z"/></g></g></svg>